<?xml version="1.0" encoding="UTF-8"?>
<svg version="1.1" xmlns="http://www.w3.org/2000/svg" width="670" height="510">
<path d="M0 0 C221.1 0 442.2 0 670 0 C670 168.3 670 336.6 670 510 C448.9 510 227.8 510 0 510 C0 341.7 0 173.4 0 0 Z " fill="#0E0E0E" transform="translate(0,0)"/>
<path d="M0 0 C1.18014931 -0.01248528 1.18014931 -0.01248528 2.38414001 -0.02522278 C4.95780549 -0.04910605 7.53121629 -0.05806941 10.10498047 -0.06469727 C11.91706407 -0.07368218 13.72914699 -0.08280431 15.54122925 -0.09205627 C19.33202913 -0.10849163 23.12274129 -0.11623602 26.91357422 -0.11914062 C31.73138948 -0.1245094 36.5483604 -0.16215073 41.36593819 -0.20788479 C45.10843792 -0.23787835 48.85074009 -0.24486903 52.59334946 -0.24586678 C54.36728647 -0.25002733 56.14122641 -0.26229041 57.91504288 -0.28338432 C73.02544261 -0.4487382 86.39766696 1.53717083 98.59716797 11.30639648 C99.28166016 11.82975586 99.96615234 12.35311523 100.67138672 12.89233398 C111.16044697 21.40345716 117.41069215 33.09886516 119.59716797 46.30639648 C119.88213832 50.21025602 119.90110331 54.10075462 119.90356445 58.01391602 C119.91188797 59.15181076 119.92021149 60.28970551 119.92878723 61.46208191 C119.95277876 65.20449297 119.96164692 68.94672929 119.96826172 72.68920898 C119.97723741 75.30842131 119.98635942 77.92763315 119.99562073 80.54684448 C120.01294161 86.03245692 120.01983844 91.51802534 120.02270508 97.00366211 C120.02633226 103.30727342 120.05618286 109.61039549 120.09810966 115.91385758 C120.1372552 122.01728524 120.14830293 128.12047861 120.14943123 134.22402573 C120.15361257 136.80178349 120.16596198 139.37954245 120.18694878 141.95721817 C120.3188082 159.55531804 120.07878106 174.97553788 108.59716797 189.30639648 C108.06220703 190.00249023 107.52724609 190.69858398 106.97607422 191.41577148 C103.27356986 195.96480686 99.35050759 199.07318182 94.31982422 202.07983398 C93.75134766 202.48459961 93.18287109 202.88936523 92.59716797 203.30639648 C92.59716797 203.96639648 92.59716797 204.62639648 92.59716797 205.30639648 C93.97556487 206.2368144 95.35810171 207.16150804 96.75732422 208.06030273 C108.58798364 216.07299988 116.14007288 227.79845174 119.16073799 241.67011642 C119.94965207 246.43559671 119.90053297 251.19391928 119.90356445 256.01391602 C119.91188797 257.15181076 119.92021149 258.28970551 119.92878723 259.46208191 C119.95277876 263.20449297 119.96164692 266.94672929 119.96826172 270.68920898 C119.97723741 273.30842131 119.98635942 275.92763315 119.99562073 278.54684448 C120.01294161 284.03245692 120.01983844 289.51802534 120.02270508 295.00366211 C120.02633226 301.30727342 120.05618286 307.61039549 120.09810966 313.91385758 C120.1372552 320.01728524 120.14830293 326.12047861 120.14943123 332.22402573 C120.15361257 334.80178349 120.16596198 337.37954245 120.18694878 339.95721817 C120.3188329 357.55861497 120.07646586 372.97141118 108.59716797 387.30639648 C108.07380859 387.99088867 107.55044922 388.67538086 107.01123047 389.38061523 C100.25399708 397.7081916 91.72871987 402.99204385 81.59716797 406.30639648 C80.55981003 406.64773117 79.52245209 406.98906586 78.45365906 407.34074402 C74.3546891 408.36711238 70.56580747 408.59524062 66.3737793 408.58105469 C65.18683975 408.58872108 65.18683975 408.58872108 63.97592163 408.59654236 C61.37693575 408.61036667 58.77821736 408.60948633 56.17919922 408.60717773 C54.35706994 408.61106994 52.53494156 408.61540569 50.71281433 408.62016296 C46.89746153 408.62761082 43.08220127 408.6273453 39.2668457 408.62207031 C34.406291 408.61629214 29.54611941 408.63317362 24.68562794 408.65641499 C20.92180714 408.67123824 17.15807662 408.67201216 13.3942318 408.66890526 C11.60389132 408.66941464 9.81354526 408.67457951 8.02323341 408.68471718 C-10.60589651 408.77722956 -25.30441411 405.69274866 -39.37158203 392.46655273 C-45.51108675 385.9374256 -49.62377563 378.80161628 -52.40283203 370.30639648 C-52.91483406 368.85259834 -52.91483406 368.85259834 -53.43717957 367.36943054 C-54.8824428 362.24018903 -54.68975561 357.06941009 -54.67749023 351.77832031 C-54.68260117 350.63589874 -54.6877121 349.49347717 -54.69297791 348.31643677 C-54.70684999 344.54871342 -54.70591844 340.78117356 -54.70361328 337.01342773 C-54.70750238 334.38416985 -54.71183749 331.75491258 -54.71659851 329.12565613 C-54.72479987 323.6154926 -54.7239123 318.10538036 -54.71850586 312.59521484 C-54.71247803 306.25308504 -54.72475114 299.91117775 -54.74607593 293.5690859 C-54.76591649 287.44003688 -54.76885345 281.31109076 -54.76534081 275.18201256 C-54.7658522 272.58784145 -54.77105555 269.99366666 -54.78115273 267.39951515 C-54.7935773 263.75998772 -54.78668824 260.1209655 -54.77514648 256.48144531 C-54.78279022 255.42284805 -54.79043396 254.36425079 -54.79830933 253.27357483 C-54.68857696 237.50961051 -49.22755454 224.83050846 -38.53564453 213.27905273 C-35.63020703 210.59178911 -32.48822752 208.51243333 -29.09033203 206.49780273 C-28.25501953 205.90805664 -28.25501953 205.90805664 -27.40283203 205.30639648 C-27.40283203 204.64639648 -27.40283203 203.98639648 -27.40283203 203.30639648 C-28.78122894 202.37597857 -30.16376578 201.45128493 -31.56298828 200.55249023 C-41.89031096 193.55797658 -48.54297809 184.10547606 -52.40283203 172.30639648 C-52.91483406 170.85259834 -52.91483406 170.85259834 -53.43717957 169.36943054 C-54.8824428 164.24018903 -54.68975561 159.06941009 -54.67749023 153.77832031 C-54.68260117 152.63589874 -54.6877121 151.49347717 -54.69297791 150.31643677 C-54.70684999 146.54871342 -54.70591844 142.78117356 -54.70361328 139.01342773 C-54.70750238 136.38416985 -54.71183749 133.75491258 -54.71659851 131.12565613 C-54.72479987 125.6154926 -54.7239123 120.10538036 -54.71850586 114.59521484 C-54.71247803 108.25308504 -54.72475114 101.91117775 -54.74607593 95.5690859 C-54.76591649 89.44003688 -54.76885345 83.31109076 -54.76534081 77.18201256 C-54.7658522 74.58784145 -54.77105555 71.99366666 -54.78115273 69.39951515 C-54.7935773 65.75998772 -54.78668824 62.1209655 -54.77514648 58.48144531 C-54.78279022 57.42284805 -54.79043396 56.36425079 -54.79830933 55.27357483 C-54.68919159 39.59790707 -49.29924221 26.77443397 -38.56689453 15.33764648 C-27.63600642 5.0776071 -14.89711569 0.01374878 0 0 Z " fill="#151515" transform="translate(296.40283203125,37.693603515625)"/>
<path d="M0 0 C1.18014931 -0.01248528 1.18014931 -0.01248528 2.38414001 -0.02522278 C4.95780549 -0.04910605 7.53121629 -0.05806941 10.10498047 -0.06469727 C11.91706407 -0.07368218 13.72914699 -0.08280431 15.54122925 -0.09205627 C19.33202913 -0.10849163 23.12274129 -0.11623602 26.91357422 -0.11914062 C31.73138948 -0.1245094 36.5483604 -0.16215073 41.36593819 -0.20788479 C45.10843792 -0.23787835 48.85074009 -0.24486903 52.59334946 -0.24586678 C54.36728647 -0.25002733 56.14122641 -0.26229041 57.91504288 -0.28338432 C73.02544261 -0.4487382 86.39766696 1.53717083 98.59716797 11.30639648 C99.28166016 11.82975586 99.96615234 12.35311523 100.67138672 12.89233398 C111.16044697 21.40345716 117.41069215 33.09886516 119.59716797 46.30639648 C119.88213832 50.21025602 119.90110331 54.10075462 119.90356445 58.01391602 C119.91188797 59.15181076 119.92021149 60.28970551 119.92878723 61.46208191 C119.95277876 65.20449297 119.96164692 68.94672929 119.96826172 72.68920898 C119.97723741 75.30842131 119.98635942 77.92763315 119.99562073 80.54684448 C120.01294161 86.03245692 120.01983844 91.51802534 120.02270508 97.00366211 C120.02633226 103.30727342 120.05618286 109.61039549 120.09810966 115.91385758 C120.1372552 122.01728524 120.14830293 128.12047861 120.14943123 134.22402573 C120.15361257 136.80178349 120.16596198 139.37954245 120.18694878 141.95721817 C120.3188329 159.55861497 120.07646586 174.97141118 108.59716797 189.30639648 C108.07380859 189.99088867 107.55044922 190.67538086 107.01123047 191.38061523 C100.25399708 199.7081916 91.72871987 204.99204385 81.59716797 208.30639648 C80.55981003 208.64773117 79.52245209 208.98906586 78.45365906 209.34074402 C74.3546891 210.36711238 70.56580747 210.59524062 66.3737793 210.58105469 C65.58248627 210.58616562 64.79119324 210.59127655 63.97592163 210.59654236 C61.37693575 210.61036667 58.77821736 210.60948633 56.17919922 210.60717773 C54.35706994 210.61106994 52.53494156 210.61540569 50.71281433 210.62016296 C46.89746153 210.62761082 43.08220127 210.6273453 39.2668457 210.62207031 C34.406291 210.61629214 29.54611941 210.63317362 24.68562794 210.65641499 C20.92180714 210.67123824 17.15807662 210.67201216 13.3942318 210.66890526 C11.60389132 210.66941464 9.81354526 210.67457951 8.02323341 210.68471718 C-10.60589651 210.77722956 -25.30441411 207.69274866 -39.37158203 194.46655273 C-45.51108675 187.9374256 -49.62377563 180.80161628 -52.40283203 172.30639648 C-52.91483406 170.85259834 -52.91483406 170.85259834 -53.43717957 169.36943054 C-54.8824428 164.24018903 -54.68975561 159.06941009 -54.67749023 153.77832031 C-54.68260117 152.63589874 -54.6877121 151.49347717 -54.69297791 150.31643677 C-54.70684999 146.54871342 -54.70591844 142.78117356 -54.70361328 139.01342773 C-54.70750238 136.38416985 -54.71183749 133.75491258 -54.71659851 131.12565613 C-54.72479987 125.6154926 -54.7239123 120.10538036 -54.71850586 114.59521484 C-54.71247803 108.25308504 -54.72475114 101.91117775 -54.74607593 95.5690859 C-54.76591649 89.44003688 -54.76885345 83.31109076 -54.76534081 77.18201256 C-54.7658522 74.58784145 -54.77105555 71.99366666 -54.78115273 69.39951515 C-54.7935773 65.75998772 -54.78668824 62.1209655 -54.77514648 58.48144531 C-54.78279022 57.42284805 -54.79043396 56.36425079 -54.79830933 55.27357483 C-54.68919159 39.59790707 -49.29924221 26.77443397 -38.56689453 15.33764648 C-27.63600642 5.0776071 -14.89711569 0.01374878 0 0 Z " fill="#151515" transform="translate(494.40283203125,235.693603515625)"/>
<path d="M0 0 C1.18014931 -0.01248528 1.18014931 -0.01248528 2.38414001 -0.02522278 C4.95780549 -0.04910605 7.53121629 -0.05806941 10.10498047 -0.06469727 C11.91706407 -0.07368218 13.72914699 -0.08280431 15.54122925 -0.09205627 C19.33202913 -0.10849163 23.12274129 -0.11623602 26.91357422 -0.11914062 C31.73138948 -0.1245094 36.5483604 -0.16215073 41.36593819 -0.20788479 C45.10843792 -0.23787835 48.85074009 -0.24486903 52.59334946 -0.24586678 C54.36728647 -0.25002733 56.14122641 -0.26229041 57.91504288 -0.28338432 C73.02544261 -0.4487382 86.39766696 1.53717083 98.59716797 11.30639648 C99.28166016 11.82975586 99.96615234 12.35311523 100.67138672 12.89233398 C111.16044697 21.40345716 117.41069215 33.09886516 119.59716797 46.30639648 C119.88213832 50.21025602 119.90110331 54.10075462 119.90356445 58.01391602 C119.91188797 59.15181076 119.92021149 60.28970551 119.92878723 61.46208191 C119.95277876 65.20449297 119.96164692 68.94672929 119.96826172 72.68920898 C119.97723741 75.30842131 119.98635942 77.92763315 119.99562073 80.54684448 C120.01294161 86.03245692 120.01983844 91.51802534 120.02270508 97.00366211 C120.02633226 103.30727342 120.05618286 109.61039549 120.09810966 115.91385758 C120.1372552 122.01728524 120.14830293 128.12047861 120.14943123 134.22402573 C120.15361257 136.80178349 120.16596198 139.37954245 120.18694878 141.95721817 C120.3188329 159.55861497 120.07646586 174.97141118 108.59716797 189.30639648 C108.07380859 189.99088867 107.55044922 190.67538086 107.01123047 191.38061523 C100.25399708 199.7081916 91.72871987 204.99204385 81.59716797 208.30639648 C80.55981003 208.64773117 79.52245209 208.98906586 78.45365906 209.34074402 C74.3546891 210.36711238 70.56580747 210.59524062 66.3737793 210.58105469 C65.58248627 210.58616562 64.79119324 210.59127655 63.97592163 210.59654236 C61.37693575 210.61036667 58.77821736 210.60948633 56.17919922 210.60717773 C54.35706994 210.61106994 52.53494156 210.61540569 50.71281433 210.62016296 C46.89746153 210.62761082 43.08220127 210.6273453 39.2668457 210.62207031 C34.406291 210.61629214 29.54611941 210.63317362 24.68562794 210.65641499 C20.92180714 210.67123824 17.15807662 210.67201216 13.3942318 210.66890526 C11.60389132 210.66941464 9.81354526 210.67457951 8.02323341 210.68471718 C-10.60589651 210.77722956 -25.30441411 207.69274866 -39.37158203 194.46655273 C-45.51108675 187.9374256 -49.62377563 180.80161628 -52.40283203 172.30639648 C-52.91483406 170.85259834 -52.91483406 170.85259834 -53.43717957 169.36943054 C-54.8824428 164.24018903 -54.68975561 159.06941009 -54.67749023 153.77832031 C-54.68260117 152.63589874 -54.6877121 151.49347717 -54.69297791 150.31643677 C-54.70684999 146.54871342 -54.70591844 142.78117356 -54.70361328 139.01342773 C-54.70750238 136.38416985 -54.71183749 133.75491258 -54.71659851 131.12565613 C-54.72479987 125.6154926 -54.7239123 120.10538036 -54.71850586 114.59521484 C-54.71247803 108.25308504 -54.72475114 101.91117775 -54.74607593 95.5690859 C-54.76591649 89.44003688 -54.76885345 83.31109076 -54.76534081 77.18201256 C-54.7658522 74.58784145 -54.77105555 71.99366666 -54.78115273 69.39951515 C-54.7935773 65.75998772 -54.78668824 62.1209655 -54.77514648 58.48144531 C-54.78279022 57.42284805 -54.79043396 56.36425079 -54.79830933 55.27357483 C-54.68919159 39.59790707 -49.29924221 26.77443397 -38.56689453 15.33764648 C-27.63600642 5.0776071 -14.89711569 0.01374878 0 0 Z " fill="#161616" transform="translate(98.40283203125,235.693603515625)"/>
<path d="M0 0 C1.13498932 -0.00503792 1.13498932 -0.00503792 2.29290771 -0.01017761 C4.79270067 -0.01967008 7.29242647 -0.02163017 9.79223633 -0.02270508 C11.53615852 -0.02591991 13.28008045 -0.02928415 15.02400208 -0.03279114 C18.68153508 -0.0387789 22.33904447 -0.04063151 25.99658203 -0.04003906 C30.66574139 -0.0399377 35.33474777 -0.05356419 40.00387096 -0.07081127 C43.60800358 -0.08197549 47.21209981 -0.08395688 50.81624794 -0.08342934 C52.53649737 -0.08460378 54.25674791 -0.08899527 55.97698021 -0.0967617 C72.08276347 -0.16264195 85.13894008 1.4429355 97.39379883 12.89526367 C106.18624738 22.57872517 108.54433526 33.06337769 108.58203125 45.79541016 C108.58538986 46.51363953 108.58874847 47.2318689 108.59220886 47.97186279 C108.60162199 50.32004579 108.60365686 52.66815679 108.60473633 55.01635742 C108.60795488 56.66488167 108.61131939 58.31340565 108.61482239 59.96192932 C108.62078902 63.40724347 108.62266476 66.85253262 108.62207031 70.29785156 C108.62196866 74.69337475 108.63563488 79.08873651 108.65284252 83.48422146 C108.66400631 86.88589706 108.6659882 90.28753411 108.66546059 93.68922615 C108.66663356 95.30899679 108.67101663 96.92876865 108.67879295 98.54852104 C108.74794869 114.43589371 106.84093915 127.13129341 95.55786133 139.16088867 C91.17549633 143.26078079 87.5368592 146.14526367 81.43676758 146.14526367 C81.43676758 145.48526367 81.43676758 144.82526367 81.43676758 144.14526367 C68.98894973 144.25273901 56.54119024 144.36536722 44.09347916 144.48460293 C38.31372229 144.53980425 32.53396034 144.59321988 26.75415039 144.64257812 C21.17797165 144.69026272 15.60185447 144.74260716 10.02574921 144.79820442 C7.8966805 144.81860938 5.76759492 144.83732553 3.6384964 144.85433769 C0.66005855 144.87842272 -2.31826317 144.90847188 -5.29663086 144.93994141 C-6.17992065 144.94569687 -7.06321045 144.95145233 -7.9732666 144.9573822 C-8.78652405 144.96717102 -9.59978149 144.97695984 -10.43768311 144.98704529 C-11.14193295 144.99349784 -11.84618279 144.99995039 -12.57177353 145.00659847 C-14.60657474 145.08183864 -14.60657474 145.08183864 -16.67313004 145.72937107 C-18.56323242 146.14526367 -18.56323242 146.14526367 -20.93041992 144.95776367 C-30.68126149 137.91042646 -38.94502473 129.32668205 -41.12712097 116.94586182 C-41.57527987 113.04027331 -41.72507678 109.19807429 -41.74023438 105.27319336 C-41.75009117 104.1423658 -41.75009117 104.1423658 -41.76014709 102.98869324 C-41.77972003 100.51484041 -41.79150607 98.04104778 -41.80151367 95.56713867 C-41.8055892 94.71571541 -41.80966473 93.86429214 -41.81386375 92.98706818 C-41.83465541 88.48104604 -41.84898733 83.97505373 -41.85839844 79.46899414 C-41.86945434 74.84144096 -41.90386464 70.21436968 -41.94357014 65.58698654 C-41.96984177 62.00422332 -41.97809953 58.42157328 -41.98167992 54.83872223 C-41.98651785 53.13405346 -41.99805103 51.42938879 -42.01671791 49.72481537 C-42.16618693 35.17304868 -39.95555341 23.30907605 -29.82104492 12.24291992 C-21.40466058 4.26307004 -11.47988532 -0.00732556 0 0 Z " fill="#151515" transform="translate(295.563232421875,49.854736328125)"/>
<path d="M0 0 C1.18014931 -0.01248528 1.18014931 -0.01248528 2.38414001 -0.02522278 C4.95780549 -0.04910605 7.53121629 -0.05806941 10.10498047 -0.06469727 C11.91706407 -0.07368218 13.72914699 -0.08280431 15.54122925 -0.09205627 C19.33202913 -0.10849163 23.12274129 -0.11623602 26.91357422 -0.11914062 C31.73138948 -0.1245094 36.5483604 -0.16215073 41.36593819 -0.20788479 C45.10843792 -0.23787835 48.85074009 -0.24486903 52.59334946 -0.24586678 C54.36728647 -0.25002733 56.14122641 -0.26229041 57.91504288 -0.28338432 C73.02544261 -0.4487382 86.39766696 1.53717083 98.59716797 11.30639648 C99.28166016 11.82975586 99.96615234 12.35311523 100.67138672 12.89233398 C111.16044697 21.40345716 117.41069215 33.09886516 119.59716797 46.30639648 C119.88213832 50.21025602 119.90110331 54.10075462 119.90356445 58.01391602 C119.91188797 59.15181076 119.92021149 60.28970551 119.92878723 61.46208191 C119.95277876 65.20449297 119.96164692 68.94672929 119.96826172 72.68920898 C119.97723741 75.30842131 119.98635942 77.92763315 119.99562073 80.54684448 C120.01294161 86.03245692 120.01983844 91.51802534 120.02270508 97.00366211 C120.02633226 103.30727342 120.05618286 109.61039549 120.09810966 115.91385758 C120.1372552 122.01728524 120.14830293 128.12047861 120.14943123 134.22402573 C120.15361257 136.80178349 120.16596198 139.37954245 120.18694878 141.95721817 C120.3188082 159.55531804 120.07878106 174.97553788 108.59716797 189.30639648 C108.06220703 190.00249023 107.52724609 190.69858398 106.97607422 191.41577148 C103.27356986 195.96480686 99.35050759 199.07318182 94.31982422 202.07983398 C93.75134766 202.48459961 93.18287109 202.88936523 92.59716797 203.30639648 C92.59716797 203.96639648 92.59716797 204.62639648 92.59716797 205.30639648 C93.97556487 206.2368144 95.35810171 207.16150804 96.75732422 208.06030273 C108.37004711 215.92539531 116.18308464 227.61558629 119.15867615 241.30549622 C120.15231635 248.10565763 119.92703545 255.04441832 119.93310547 261.90405273 C119.93954713 263.62406012 119.94627646 265.34406645 119.95327759 267.06407166 C119.96521183 270.66236912 119.96896265 274.26057088 119.96777344 277.85888672 C119.96757105 282.42539683 119.99480739 286.99127904 120.02931786 291.55764103 C120.05177955 295.11059777 120.05560507 298.66340835 120.05455399 302.21642876 C120.05688363 303.89741606 120.06555454 305.57840909 120.08121872 307.25932503 C120.22874794 324.73280708 117.71917577 342.15762805 105.42919922 355.61499023 C91.68261832 368.30639648 91.68261832 368.30639648 84.59716797 368.30639648 C84.06526256 366.87295648 83.54701539 365.43444282 83.03466797 363.99389648 C82.74462891 363.19338867 82.45458984 362.39288086 82.15576172 361.56811523 C81.59716797 359.30639648 81.59716797 359.30639648 82.59716797 356.30639648 C84.60107422 355.01733398 84.60107422 355.01733398 87.15966797 353.68139648 C96.45550748 348.2765298 102.24998282 340.50597353 105.59716797 330.30639648 C106.45046393 325.33294363 106.75472442 320.46950908 106.77416992 315.43432617 C106.78402672 314.30349861 106.78402672 314.30349861 106.79408264 313.14982605 C106.81365558 310.67597322 106.82544162 308.20218059 106.83544922 305.72827148 C106.83952475 304.87684822 106.84360027 304.02542496 106.8477993 303.14820099 C106.86859096 298.64217885 106.88292287 294.13618654 106.89233398 289.63012695 C106.90338988 285.00257377 106.93780019 280.37550249 106.97750568 275.74811935 C107.00377732 272.16535613 107.01203507 268.58270609 107.01561546 264.99985504 C107.0204534 263.29518628 107.03198658 261.5905216 107.05065346 259.88594818 C107.19676417 245.66113397 105.23619091 234.45396569 95.59716797 223.30639648 C93.08807987 221.00969182 90.47056634 219.11937403 87.59716797 217.30639648 C87.00935547 216.91709961 86.42154297 216.52780273 85.81591797 216.12670898 C79.09373411 211.94062176 72.18877265 211.00598089 64.42797852 211.01586914 C63.65444031 211.00915192 62.8809021 211.00243469 62.08392334 210.99551392 C59.55051076 210.97666237 57.01736489 210.9726163 54.48388672 210.97045898 C52.70563146 210.96402222 50.92737725 210.95729322 49.14912415 210.95028687 C45.42971341 210.93834624 41.71039533 210.93460273 37.9909668 210.93579102 C33.25019082 210.93599404 28.5100154 210.90869475 23.76938152 210.8742466 C20.09824451 210.8518918 16.42725009 210.84795609 12.75605202 210.84901047 C11.00952905 210.8466673 9.26300137 210.83791709 7.51654625 210.82234573 C-6.83421034 210.70636686 -18.15508208 212.57498143 -29.40283203 222.30639648 C-37.57626704 230.87127953 -41.55547607 240.2336611 -41.5480957 251.97729492 C-41.55145432 252.74531433 -41.55481293 253.51333374 -41.55827332 254.30462646 C-41.56776548 256.84169131 -41.56972576 259.37868999 -41.57080078 261.91577148 C-41.57401528 263.68450955 -41.57737949 265.45324735 -41.58088684 267.22198486 C-41.58687427 270.9307924 -41.58872721 274.63957665 -41.58813477 278.34838867 C-41.58803333 283.08714774 -41.60166823 287.82575636 -41.61890697 292.56447983 C-41.63006008 296.21918414 -41.63205293 299.8738525 -41.63152504 303.52857208 C-41.63270083 305.27476773 -41.63709999 307.02096444 -41.64485741 308.76714325 C-41.65472142 311.21750719 -41.65175386 313.66755014 -41.64575195 316.11791992 C-41.65418121 317.18743896 -41.65418121 317.18743896 -41.66278076 318.27856445 C-41.59228018 329.68019349 -37.20633974 340.03957878 -29.51611328 348.41186523 C-25.54707146 351.97006354 -21.0028109 354.64456423 -16.40283203 357.30639648 C-17.06283203 360.60639648 -17.72283203 363.90639648 -18.40283203 367.30639648 C-21.40283203 368.30639648 -21.40283203 368.30639648 -23.85595703 367.30249023 C-37.99439329 359.42366891 -47.45818963 349.07942243 -52.40283203 333.30639648 C-54.96495253 324.16487495 -54.71249338 314.87519236 -54.70361328 305.47045898 C-54.70750899 303.74229837 -54.71184543 302.0141387 -54.71659851 300.28598022 C-54.72402652 296.67686855 -54.72379442 293.06785476 -54.71850586 289.45874023 C-54.71271602 284.86394143 -54.72964721 280.26954637 -54.75285053 275.67481422 C-54.76767646 272.10915842 -54.7684476 268.54359789 -54.76534081 264.97791672 C-54.76584958 263.28526383 -54.77100267 261.59260498 -54.78115273 259.89998245 C-54.87792984 241.5075104 -51.42217137 227.20155526 -38.53564453 213.27905273 C-35.63020703 210.59178911 -32.48822752 208.51243333 -29.09033203 206.49780273 C-28.25501953 205.90805664 -28.25501953 205.90805664 -27.40283203 205.30639648 C-27.40283203 204.64639648 -27.40283203 203.98639648 -27.40283203 203.30639648 C-28.78122894 202.37597857 -30.16376578 201.45128493 -31.56298828 200.55249023 C-41.89031096 193.55797658 -48.54297809 184.10547606 -52.40283203 172.30639648 C-52.91483406 170.85259834 -52.91483406 170.85259834 -53.43717957 169.36943054 C-54.8824428 164.24018903 -54.68975561 159.06941009 -54.67749023 153.77832031 C-54.68260117 152.63589874 -54.6877121 151.49347717 -54.69297791 150.31643677 C-54.70684999 146.54871342 -54.70591844 142.78117356 -54.70361328 139.01342773 C-54.70750238 136.38416985 -54.71183749 133.75491258 -54.71659851 131.12565613 C-54.72479987 125.6154926 -54.7239123 120.10538036 -54.71850586 114.59521484 C-54.71247803 108.25308504 -54.72475114 101.91117775 -54.74607593 95.5690859 C-54.76591649 89.44003688 -54.76885345 83.31109076 -54.76534081 77.18201256 C-54.7658522 74.58784145 -54.77105555 71.99366666 -54.78115273 69.39951515 C-54.7935773 65.75998772 -54.78668824 62.1209655 -54.77514648 58.48144531 C-54.78279022 57.42284805 -54.79043396 56.36425079 -54.79830933 55.27357483 C-54.68919159 39.59790707 -49.29924221 26.77443397 -38.56689453 15.33764648 C-27.63600642 5.0776071 -14.89711569 0.01374878 0 0 Z M-34.86767578 29.05639648 C-40.19797002 36.86873613 -42.55405499 44.53082572 -42.5480957 53.86962891 C-42.55145432 54.62628845 -42.55481293 55.382948 -42.55827332 56.16253662 C-42.56776578 58.66232958 -42.56972587 61.16205538 -42.57080078 63.66186523 C-42.57401561 65.40578743 -42.57737985 67.14970935 -42.58088684 68.89363098 C-42.5868746 72.55116399 -42.58872721 76.20867338 -42.58813477 79.86621094 C-42.58803341 84.53537029 -42.60165989 89.20437668 -42.61890697 93.87349987 C-42.63007119 97.47763249 -42.63205258 101.08172871 -42.63152504 104.68587685 C-42.63269948 106.40612628 -42.63709097 108.12637682 -42.64485741 109.84660912 C-42.71115131 126.05352 -41.07348753 139.02623761 -29.52392578 151.31811523 C-26.50639296 154.14670493 -23.32584166 156.87235515 -19.40283203 158.30639648 C-18.06667886 157.98455244 -16.73364869 157.64963971 -15.40283203 157.30639648 C-14.02996204 157.2108036 -12.65341899 157.16078668 -11.27728271 157.1481781 C-10.46402527 157.13838928 -9.65076782 157.12860046 -8.81286621 157.11851501 C-7.92957642 157.11275955 -7.04628662 157.10700409 -6.13623047 157.10107422 C-5.19930359 157.09117462 -4.26237671 157.08127502 -3.29705811 157.07107544 C-0.2021334 157.03950394 2.89280666 157.01472014 5.98779297 156.98999023 C8.1344238 156.96941696 10.28105062 156.94842039 12.42767334 156.92701721 C18.07634222 156.87183517 23.72504743 156.82240879 29.3737793 156.77416992 C35.13837922 156.72392669 40.90292643 156.66825535 46.66748047 156.61303711 C57.97733126 156.50550282 69.28722783 156.40404731 80.59716797 156.30639648 C80.59716797 156.96639648 80.59716797 157.62639648 80.59716797 158.30639648 C87.06459412 158.14056504 91.06039691 154.52701625 95.59716797 150.30639648 C104.64785187 140.54585502 107.70315245 131.02900237 107.74243164 117.80151367 C107.74579025 117.08664291 107.74914886 116.37177216 107.75260925 115.63523865 C107.76204346 113.2912315 107.76405868 110.94729639 107.76513672 108.60327148 C107.76835499 106.95810925 107.77171948 105.3129473 107.77522278 103.66778564 C107.78119557 100.22488747 107.78306463 96.78201432 107.7824707 93.33911133 C107.78236929 88.95384506 107.79600795 84.56874146 107.81324291 80.18351364 C107.82442961 76.78604412 107.82638786 73.38861306 107.82586098 69.99112701 C107.82703158 68.37580048 107.83140095 66.76047265 107.83919334 65.14516449 C107.91197186 48.49829848 106.51756725 36.02745403 94.84716797 23.38452148 C85.51658865 14.76669475 75.15102388 12.17738253 62.72509766 12.12939453 C61.97121262 12.12282333 61.21732758 12.11625214 60.44059753 12.10948181 C57.9667447 12.08990887 55.49295208 12.07812284 53.01904297 12.06811523 C52.16761971 12.06403971 51.31619644 12.05996418 50.43897247 12.05576515 C45.93295033 12.0349735 41.42695803 12.02064158 36.92089844 12.01123047 C32.29334525 12.00017457 27.66627397 11.96576426 23.03889084 11.92605877 C19.45612762 11.89978713 15.87347757 11.89152938 12.29062653 11.88794899 C10.58595776 11.88311106 8.88129309 11.87157788 7.17671967 11.852911 C-9.80320417 11.67850107 -23.56462844 15.37516661 -34.86767578 29.05639648 Z " fill="#363638" transform="translate(296.40283203125,37.693603515625)"/>
<path d="M0 0 C1.18014931 -0.01248528 1.18014931 -0.01248528 2.38414001 -0.02522278 C4.95780549 -0.04910605 7.53121629 -0.05806941 10.10498047 -0.06469727 C11.91706407 -0.07368218 13.72914699 -0.08280431 15.54122925 -0.09205627 C19.33202913 -0.10849163 23.12274129 -0.11623602 26.91357422 -0.11914062 C31.73138948 -0.1245094 36.5483604 -0.16215073 41.36593819 -0.20788479 C45.10843792 -0.23787835 48.85074009 -0.24486903 52.59334946 -0.24586678 C54.36728647 -0.25002733 56.14122641 -0.26229041 57.91504288 -0.28338432 C73.02544261 -0.4487382 86.39766696 1.53717083 98.59716797 11.30639648 C99.28166016 11.82975586 99.96615234 12.35311523 100.67138672 12.89233398 C111.16044697 21.40345716 117.41069215 33.09886516 119.59716797 46.30639648 C119.88213832 50.21025602 119.90110331 54.10075462 119.90356445 58.01391602 C119.91188797 59.15181076 119.92021149 60.28970551 119.92878723 61.46208191 C119.95277876 65.20449297 119.96164692 68.94672929 119.96826172 72.68920898 C119.97723741 75.30842131 119.98635942 77.92763315 119.99562073 80.54684448 C120.01294161 86.03245692 120.01983844 91.51802534 120.02270508 97.00366211 C120.02633226 103.30727342 120.05618286 109.61039549 120.09810966 115.91385758 C120.1372552 122.01728524 120.14830293 128.12047861 120.14943123 134.22402573 C120.15361257 136.80178349 120.16596198 139.37954245 120.18694878 141.95721817 C120.3188329 159.55861497 120.07646586 174.97141118 108.59716797 189.30639648 C108.07380859 189.99088867 107.55044922 190.67538086 107.01123047 191.38061523 C100.25399708 199.7081916 91.72871987 204.99204385 81.59716797 208.30639648 C80.55981003 208.64773117 79.52245209 208.98906586 78.45365906 209.34074402 C74.3546891 210.36711238 70.56580747 210.59524062 66.3737793 210.58105469 C65.58248627 210.58616562 64.79119324 210.59127655 63.97592163 210.59654236 C61.37693575 210.61036667 58.77821736 210.60948633 56.17919922 210.60717773 C54.35706994 210.61106994 52.53494156 210.61540569 50.71281433 210.62016296 C46.89746153 210.62761082 43.08220127 210.6273453 39.2668457 210.62207031 C34.406291 210.61629214 29.54611941 210.63317362 24.68562794 210.65641499 C20.92180714 210.67123824 17.15807662 210.67201216 13.3942318 210.66890526 C11.60389132 210.66941464 9.81354526 210.67457951 8.02323341 210.68471718 C-10.60589651 210.77722956 -25.30441411 207.69274866 -39.37158203 194.46655273 C-45.51108675 187.9374256 -49.62377563 180.80161628 -52.40283203 172.30639648 C-52.91483406 170.85259834 -52.91483406 170.85259834 -53.43717957 169.36943054 C-54.8824428 164.24018903 -54.68975561 159.06941009 -54.67749023 153.77832031 C-54.68260117 152.63589874 -54.6877121 151.49347717 -54.69297791 150.31643677 C-54.70684999 146.54871342 -54.70591844 142.78117356 -54.70361328 139.01342773 C-54.70750238 136.38416985 -54.71183749 133.75491258 -54.71659851 131.12565613 C-54.72479987 125.6154926 -54.7239123 120.10538036 -54.71850586 114.59521484 C-54.71247803 108.25308504 -54.72475114 101.91117775 -54.74607593 95.5690859 C-54.76591649 89.44003688 -54.76885345 83.31109076 -54.76534081 77.18201256 C-54.7658522 74.58784145 -54.77105555 71.99366666 -54.78115273 69.39951515 C-54.7935773 65.75998772 -54.78668824 62.1209655 -54.77514648 58.48144531 C-54.78279022 57.42284805 -54.79043396 56.36425079 -54.79830933 55.27357483 C-54.68919159 39.59790707 -49.29924221 26.77443397 -38.56689453 15.33764648 C-27.63600642 5.0776071 -14.89711569 0.01374878 0 0 Z M-34.02392578 28.21264648 C-39.5205333 36.55877008 -42.55443467 43.9358284 -42.5480957 53.86962891 C-42.55145432 54.62628845 -42.55481293 55.382948 -42.55827332 56.16253662 C-42.56776578 58.66232958 -42.56972587 61.16205538 -42.57080078 63.66186523 C-42.57401561 65.40578743 -42.57737985 67.14970935 -42.58088684 68.89363098 C-42.5868746 72.55116399 -42.58872721 76.20867338 -42.58813477 79.86621094 C-42.58803341 84.53537029 -42.60165989 89.20437668 -42.61890697 93.87349987 C-42.63007119 97.47763249 -42.63205258 101.08172871 -42.63152504 104.68587685 C-42.63269948 106.40612628 -42.63709097 108.12637682 -42.64485741 109.84660912 C-42.71115131 126.05352 -41.07348753 139.02623761 -29.52392578 151.31811523 C-26.50639296 154.14670493 -23.32584166 156.87235515 -19.40283203 158.30639648 C-18.06667886 157.98455244 -16.73364869 157.64963971 -15.40283203 157.30639648 C-14.02996204 157.2108036 -12.65341899 157.16078668 -11.27728271 157.1481781 C-10.46402527 157.13838928 -9.65076782 157.12860046 -8.81286621 157.11851501 C-7.92957642 157.11275955 -7.04628662 157.10700409 -6.13623047 157.10107422 C-5.19930359 157.09117462 -4.26237671 157.08127502 -3.29705811 157.07107544 C-0.2021334 157.03950394 2.89280666 157.01472014 5.98779297 156.98999023 C8.1344238 156.96941696 10.28105062 156.94842039 12.42767334 156.92701721 C18.07634222 156.87183517 23.72504743 156.82240879 29.3737793 156.77416992 C35.13837922 156.72392669 40.90292643 156.66825535 46.66748047 156.61303711 C57.97733126 156.50550282 69.28722783 156.40404731 80.59716797 156.30639648 C80.59716797 156.96639648 80.59716797 157.62639648 80.59716797 158.30639648 C87.06459412 158.14056504 91.06039691 154.52701625 95.59716797 150.30639648 C104.74264573 140.44362635 107.72266288 130.77146685 107.77416992 117.43432617 C107.78402672 116.30349861 107.78402672 116.30349861 107.79408264 115.14982605 C107.81365558 112.67597322 107.82544162 110.20218059 107.83544922 107.72827148 C107.83952475 106.87684822 107.84360027 106.02542496 107.8477993 105.14820099 C107.86859096 100.64217885 107.88292287 96.13618654 107.89233398 91.63012695 C107.90338988 87.00257377 107.93780019 82.37550249 107.97750568 77.74811935 C108.00377732 74.16535613 108.01203507 70.58270609 108.01561546 66.99985504 C108.0204534 65.29518628 108.03198658 63.5905216 108.05065346 61.88594818 C108.19657423 47.67962599 106.25157739 36.42129614 96.59716797 25.30639648 C93.76419825 22.68903331 90.80135067 20.44822984 87.59716797 18.30639648 C86.98744141 17.89518555 86.37771484 17.48397461 85.74951172 17.06030273 C79.07793033 12.91146055 72.12370601 12.00606379 64.42797852 12.01586914 C63.65444031 12.00915192 62.8809021 12.00243469 62.08392334 11.99551392 C59.55051076 11.97666237 57.01736489 11.9726163 54.48388672 11.97045898 C52.70563146 11.96402222 50.92737725 11.95729322 49.14912415 11.95028687 C45.42971341 11.93834624 41.71039533 11.93460273 37.9909668 11.93579102 C33.25019082 11.93599404 28.5100154 11.90869475 23.76938152 11.8742466 C20.09824451 11.8518918 16.42725009 11.84795609 12.75605202 11.84901047 C11.00952905 11.8466673 9.26300137 11.83791709 7.51654625 11.82234573 C-8.79769358 11.69049853 -23.24174208 14.69651877 -34.02392578 28.21264648 Z " fill="#363638" transform="translate(98.40283203125,235.693603515625)"/>
<path d="M0 0 C1.18014931 -0.01248528 1.18014931 -0.01248528 2.38414001 -0.02522278 C4.95780549 -0.04910605 7.53121629 -0.05806941 10.10498047 -0.06469727 C11.91706407 -0.07368218 13.72914699 -0.08280431 15.54122925 -0.09205627 C19.33202913 -0.10849163 23.12274129 -0.11623602 26.91357422 -0.11914062 C31.73138948 -0.1245094 36.5483604 -0.16215073 41.36593819 -0.20788479 C45.10843792 -0.23787835 48.85074009 -0.24486903 52.59334946 -0.24586678 C54.36728647 -0.25002733 56.14122641 -0.26229041 57.91504288 -0.28338432 C73.02544261 -0.4487382 86.39766696 1.53717083 98.59716797 11.30639648 C99.28166016 11.82975586 99.96615234 12.35311523 100.67138672 12.89233398 C111.16044697 21.40345716 117.41069215 33.09886516 119.59716797 46.30639648 C119.88213832 50.21025602 119.90110331 54.10075462 119.90356445 58.01391602 C119.91188797 59.15181076 119.92021149 60.28970551 119.92878723 61.46208191 C119.95277876 65.20449297 119.96164692 68.94672929 119.96826172 72.68920898 C119.97723741 75.30842131 119.98635942 77.92763315 119.99562073 80.54684448 C120.01294161 86.03245692 120.01983844 91.51802534 120.02270508 97.00366211 C120.02633226 103.30727342 120.05618286 109.61039549 120.09810966 115.91385758 C120.1372552 122.01728524 120.14830293 128.12047861 120.14943123 134.22402573 C120.15361257 136.80178349 120.16596198 139.37954245 120.18694878 141.95721817 C120.3188329 159.55861497 120.07646586 174.97141118 108.59716797 189.30639648 C108.07380859 189.99088867 107.55044922 190.67538086 107.01123047 191.38061523 C100.25399708 199.7081916 91.72871987 204.99204385 81.59716797 208.30639648 C80.55981003 208.64773117 79.52245209 208.98906586 78.45365906 209.34074402 C74.3546891 210.36711238 70.56580747 210.59524062 66.3737793 210.58105469 C65.58248627 210.58616562 64.79119324 210.59127655 63.97592163 210.59654236 C61.37693575 210.61036667 58.77821736 210.60948633 56.17919922 210.60717773 C54.35706994 210.61106994 52.53494156 210.61540569 50.71281433 210.62016296 C46.89746153 210.62761082 43.08220127 210.6273453 39.2668457 210.62207031 C34.406291 210.61629214 29.54611941 210.63317362 24.68562794 210.65641499 C20.92180714 210.67123824 17.15807662 210.67201216 13.3942318 210.66890526 C11.60389132 210.66941464 9.81354526 210.67457951 8.02323341 210.68471718 C-10.60589651 210.77722956 -25.30441411 207.69274866 -39.37158203 194.46655273 C-45.51108675 187.9374256 -49.62377563 180.80161628 -52.40283203 172.30639648 C-52.91483406 170.85259834 -52.91483406 170.85259834 -53.43717957 169.36943054 C-54.8824428 164.24018903 -54.68975561 159.06941009 -54.67749023 153.77832031 C-54.68260117 152.63589874 -54.6877121 151.49347717 -54.69297791 150.31643677 C-54.70684999 146.54871342 -54.70591844 142.78117356 -54.70361328 139.01342773 C-54.70750238 136.38416985 -54.71183749 133.75491258 -54.71659851 131.12565613 C-54.72479987 125.6154926 -54.7239123 120.10538036 -54.71850586 114.59521484 C-54.71247803 108.25308504 -54.72475114 101.91117775 -54.74607593 95.5690859 C-54.76591649 89.44003688 -54.76885345 83.31109076 -54.76534081 77.18201256 C-54.7658522 74.58784145 -54.77105555 71.99366666 -54.78115273 69.39951515 C-54.7935773 65.75998772 -54.78668824 62.1209655 -54.77514648 58.48144531 C-54.78279022 57.42284805 -54.79043396 56.36425079 -54.79830933 55.27357483 C-54.68919159 39.59790707 -49.29924221 26.77443397 -38.56689453 15.33764648 C-27.63600642 5.0776071 -14.89711569 0.01374878 0 0 Z M-34.02392578 28.21264648 C-39.5205333 36.55877008 -42.55443467 43.9358284 -42.5480957 53.86962891 C-42.55145432 54.62628845 -42.55481293 55.382948 -42.55827332 56.16253662 C-42.56776578 58.66232958 -42.56972587 61.16205538 -42.57080078 63.66186523 C-42.57401561 65.40578743 -42.57737985 67.14970935 -42.58088684 68.89363098 C-42.5868746 72.55116399 -42.58872721 76.20867338 -42.58813477 79.86621094 C-42.58803341 84.53537029 -42.60165989 89.20437668 -42.61890697 93.87349987 C-42.63007119 97.47763249 -42.63205258 101.08172871 -42.63152504 104.68587685 C-42.63269948 106.40612628 -42.63709097 108.12637682 -42.64485741 109.84660912 C-42.71115131 126.05352 -41.07348753 139.02623761 -29.52392578 151.31811523 C-26.50639296 154.14670493 -23.32584166 156.87235515 -19.40283203 158.30639648 C-18.06667886 157.98455244 -16.73364869 157.64963971 -15.40283203 157.30639648 C-14.02996204 157.2108036 -12.65341899 157.16078668 -11.27728271 157.1481781 C-10.46402527 157.13838928 -9.65076782 157.12860046 -8.81286621 157.11851501 C-7.92957642 157.11275955 -7.04628662 157.10700409 -6.13623047 157.10107422 C-5.19930359 157.09117462 -4.26237671 157.08127502 -3.29705811 157.07107544 C-0.2021334 157.03950394 2.89280666 157.01472014 5.98779297 156.98999023 C8.1344238 156.96941696 10.28105062 156.94842039 12.42767334 156.92701721 C18.07634222 156.87183517 23.72504743 156.82240879 29.3737793 156.77416992 C35.13837922 156.72392669 40.90292643 156.66825535 46.66748047 156.61303711 C57.97733126 156.50550282 69.28722783 156.40404731 80.59716797 156.30639648 C80.59716797 156.96639648 80.59716797 157.62639648 80.59716797 158.30639648 C87.06459412 158.14056504 91.06039691 154.52701625 95.59716797 150.30639648 C104.74264573 140.44362635 107.72266288 130.77146685 107.77416992 117.43432617 C107.78402672 116.30349861 107.78402672 116.30349861 107.79408264 115.14982605 C107.81365558 112.67597322 107.82544162 110.20218059 107.83544922 107.72827148 C107.83952475 106.87684822 107.84360027 106.02542496 107.8477993 105.14820099 C107.86859096 100.64217885 107.88292287 96.13618654 107.89233398 91.63012695 C107.90338988 87.00257377 107.93780019 82.37550249 107.97750568 77.74811935 C108.00377732 74.16535613 108.01203507 70.58270609 108.01561546 66.99985504 C108.0204534 65.29518628 108.03198658 63.5905216 108.05065346 61.88594818 C108.20622908 46.73966451 105.72766981 34.92189034 94.90576172 23.52514648 C86.11337846 15.52836171 76.2425649 12.00081584 64.42797852 12.01586914 C63.65444031 12.00915192 62.8809021 12.00243469 62.08392334 11.99551392 C59.55051076 11.97666237 57.01736489 11.9726163 54.48388672 11.97045898 C52.70563146 11.96402222 50.92737725 11.95729322 49.14912415 11.95028687 C45.42971341 11.93834624 41.71039533 11.93460273 37.9909668 11.93579102 C33.25019082 11.93599404 28.5100154 11.90869475 23.76938152 11.8742466 C20.09824451 11.8518918 16.42725009 11.84795609 12.75605202 11.84901047 C11.00952905 11.8466673 9.26300137 11.83791709 7.51654625 11.82234573 C-8.79769358 11.69049853 -23.24174208 14.69651877 -34.02392578 28.21264648 Z " fill="#363638" transform="translate(494.40283203125,235.693603515625)"/>
<path d="M0 0 C0.33 0 0.66 0 1 0 C1.21914062 1.02738281 1.43828125 2.05476563 1.6640625 3.11328125 C5.45167928 19.99114665 12.22729072 31.39056775 27 41 C30.7997146 43.23566968 30.7997146 43.23566968 35 44 C35.12117188 43.31292969 35.24234375 42.62585938 35.3671875 41.91796875 C35.53476562 41.01691406 35.70234375 40.11585938 35.875 39.1875 C36.03742188 38.29417969 36.19984375 37.40085937 36.3671875 36.48046875 C37 34 37 34 39 31 C42.08012614 30.71398051 44.95822922 30.62210172 48.03955078 30.65942383 C48.97618561 30.65898575 49.91282043 30.65854767 50.87783813 30.65809631 C53.98387259 30.66019181 57.08937196 30.68355878 60.1953125 30.70703125 C62.34479477 30.71262449 64.49428086 30.71689587 66.64376831 30.71989441 C72.30904649 30.73136453 77.97409498 30.7608504 83.63928223 30.79400635 C89.41704195 30.82466054 95.19483869 30.83838979 100.97265625 30.85351562 C112.31520524 30.88571798 123.65758354 30.9369405 135 31 C135 31.66 135 32.32 135 33 C135.66 33.33 136.32 33.66 137 34 C137.6328125 36.50390625 137.6328125 36.50390625 138.125 39.5625 C138.29257812 40.57441406 138.46015625 41.58632813 138.6328125 42.62890625 C138.75398437 43.41136719 138.87515625 44.19382812 139 45 C154.94609103 36.7903656 165.21719484 27.67618581 171 10 C171.83006121 6.68410102 172.49886665 3.38078023 173 0 C173.33 0 173.66 0 174 0 C174.12528327 5.42187435 174.21511719 10.84287361 174.2746582 16.26586914 C174.29952471 18.10358387 174.3334309 19.94120268 174.37719727 21.77856445 C174.74298326 37.55039602 173.23147123 51.22326129 163 64 C162.47664062 64.68449219 161.95328125 65.36898437 161.4140625 66.07421875 C154.65682911 74.40179511 146.1315519 79.68564736 136 83 C134.96264206 83.34133469 133.92528412 83.68266937 132.85649109 84.03434753 C128.75752113 85.0607159 124.9686395 85.28884413 120.77661133 85.2746582 C119.58967178 85.2823246 119.58967178 85.2823246 118.37875366 85.29014587 C115.77976778 85.30397018 113.18104939 85.30308985 110.58203125 85.30078125 C108.75990197 85.30467346 106.93777359 85.3090092 105.11564636 85.31376648 C101.30029356 85.32121433 97.4850333 85.32094882 93.66967773 85.31567383 C88.80912303 85.30989566 83.94895144 85.32677714 79.08845997 85.3500185 C75.32463917 85.36484176 71.56090866 85.36561568 67.79706383 85.36250877 C66.00672335 85.36301816 64.2163773 85.36818303 62.42606544 85.37832069 C43.79693552 85.47083307 29.09841792 82.38635218 15.03125 69.16015625 C8.89174528 62.63102912 4.7790564 55.4952198 2 47 C1.65702881 45.98760254 1.31405762 44.97520508 0.96069336 43.93212891 C-0.29890906 39.47667482 -0.25193391 35.16751754 -0.1953125 30.56640625 C-0.1924826 29.68846909 -0.18965271 28.81053192 -0.18673706 27.9059906 C-0.17561598 25.12468355 -0.15052672 22.34370836 -0.125 19.5625 C-0.11495975 17.66732239 -0.10583573 15.77213968 -0.09765625 13.87695312 C-0.07570315 9.25117583 -0.0412296 4.62564402 0 0 Z " fill="#363638" transform="translate(242,361)"/>
<path d="M0 0 C1.18014931 -0.01248528 1.18014931 -0.01248528 2.38414001 -0.02522278 C4.95780549 -0.04910605 7.53121629 -0.05806941 10.10498047 -0.06469727 C11.91706407 -0.07368218 13.72914699 -0.08280431 15.54122925 -0.09205627 C19.33202913 -0.10849163 23.12274129 -0.11623602 26.91357422 -0.11914062 C31.73138948 -0.1245094 36.5483604 -0.16215073 41.36593819 -0.20788479 C45.10843792 -0.23787835 48.85074009 -0.24486903 52.59334946 -0.24586678 C54.36728647 -0.25002733 56.14122641 -0.26229041 57.91504288 -0.28338432 C73.02544261 -0.4487382 86.39766696 1.53717083 98.59716797 11.30639648 C99.28166016 11.82975586 99.96615234 12.35311523 100.67138672 12.89233398 C111.02177904 21.29093804 117.67387306 33.14397037 119.59716797 46.30639648 C119.91458124 52.17177862 119.92790869 58.03125005 119.93310547 63.90405273 C119.93954713 65.62406012 119.94627646 67.34406645 119.95327759 69.06407166 C119.96521183 72.66236912 119.96896265 76.26057088 119.96777344 79.85888672 C119.96757105 84.42539683 119.99480739 88.99127904 120.02931786 93.55764103 C120.05177955 97.11059777 120.05560507 100.66340835 120.05455399 104.21642876 C120.05688363 105.89741606 120.06555454 107.57840909 120.08121872 109.25932503 C120.22874794 126.73280708 117.71917577 144.15762805 105.42919922 157.61499023 C91.68261832 170.30639648 91.68261832 170.30639648 84.59716797 170.30639648 C84.06526256 168.87295648 83.54701539 167.43444282 83.03466797 165.99389648 C82.59960938 164.79313477 82.59960938 164.79313477 82.15576172 163.56811523 C81.59716797 161.30639648 81.59716797 161.30639648 82.59716797 158.30639648 C84.89013672 156.72827148 84.89013672 156.72827148 87.78466797 155.05639648 C96.9018843 149.39052949 101.67244265 142.32914778 105.59716797 132.30639648 C106.45250741 127.43567833 106.72776132 122.7418276 106.74243164 117.80151367 C106.74579025 117.08664291 106.74914886 116.37177216 106.75260925 115.63523865 C106.76204346 113.2912315 106.76405868 110.94729639 106.76513672 108.60327148 C106.76835499 106.95810925 106.77171948 105.3129473 106.77522278 103.66778564 C106.78119557 100.22488747 106.78306463 96.78201432 106.7824707 93.33911133 C106.78236929 88.95384506 106.79600795 84.56874146 106.81324291 80.18351364 C106.82442961 76.78604412 106.82638786 73.38861306 106.82586098 69.99112701 C106.82703158 68.37580048 106.83140095 66.76047265 106.83919334 65.14516449 C106.90906023 49.16428495 105.80308778 36.41671558 94.62451172 24.16186523 C85.3632649 15.68577228 74.98882284 13.17675612 62.72509766 13.12939453 C61.97121262 13.12282333 61.21732758 13.11625214 60.44059753 13.10948181 C57.9667447 13.08990887 55.49295208 13.07812284 53.01904297 13.06811523 C52.16761971 13.06403971 51.31619644 13.05996418 50.43897247 13.05576515 C45.93295033 13.0349735 41.42695803 13.02064158 36.92089844 13.01123047 C32.29334525 13.00017457 27.66627397 12.96576426 23.03889084 12.92605877 C19.45612762 12.89978713 15.87347757 12.89152938 12.29062653 12.88794899 C10.58595776 12.88311106 8.88129309 12.87157788 7.17671967 12.852911 C-7.0469481 12.70681206 -18.26231239 14.66775577 -29.40283203 24.30639648 C-37.53391856 32.82690286 -41.5555561 42.17844013 -41.5480957 53.86962891 C-41.55145432 54.62628845 -41.55481293 55.382948 -41.55827332 56.16253662 C-41.56776578 58.66232958 -41.56972587 61.16205538 -41.57080078 63.66186523 C-41.57401561 65.40578743 -41.57737985 67.14970935 -41.58088684 68.89363098 C-41.5868746 72.55116399 -41.58872721 76.20867338 -41.58813477 79.86621094 C-41.58803341 84.53537029 -41.60165989 89.20437668 -41.61890697 93.87349987 C-41.63007119 97.47763249 -41.63205258 101.08172871 -41.63152504 104.68587685 C-41.63269948 106.40612628 -41.63709097 108.12637682 -41.64485741 109.84660912 C-41.70789454 125.25733375 -40.41860398 138.54241306 -29.51611328 150.41186523 C-25.54707146 153.97006354 -21.0028109 156.64456423 -16.40283203 159.30639648 C-17.06283203 162.60639648 -17.72283203 165.90639648 -18.40283203 169.30639648 C-21.40283203 170.30639648 -21.40283203 170.30639648 -23.85595703 169.30249023 C-37.99439329 161.42366891 -47.45818963 151.07942243 -52.40283203 135.30639648 C-54.96495253 126.16487495 -54.71249338 116.87519236 -54.70361328 107.47045898 C-54.70750899 105.74229837 -54.71184543 104.0141387 -54.71659851 102.28598022 C-54.72402652 98.67686855 -54.72379442 95.06785476 -54.71850586 91.45874023 C-54.71271602 86.86394143 -54.72964721 82.26954637 -54.75285053 77.67481422 C-54.76767646 74.10915842 -54.7684476 70.54359789 -54.76534081 66.97791672 C-54.76584958 65.28526383 -54.77100267 63.59260498 -54.78115273 61.89998245 C-54.87741508 43.60534176 -51.50680628 29.12689607 -38.56689453 15.33764648 C-27.63600642 5.0776071 -14.89711569 0.01374878 0 0 Z " fill="#6E6E72" transform="translate(296.40283203125,37.693603515625)"/>
<path d="M0 0 C1.18014931 -0.01248528 1.18014931 -0.01248528 2.38414001 -0.02522278 C4.95780549 -0.04910605 7.53121629 -0.05806941 10.10498047 -0.06469727 C11.91706407 -0.07368218 13.72914699 -0.08280431 15.54122925 -0.09205627 C19.33202913 -0.10849163 23.12274129 -0.11623602 26.91357422 -0.11914062 C31.73138948 -0.1245094 36.5483604 -0.16215073 41.36593819 -0.20788479 C45.10843792 -0.23787835 48.85074009 -0.24486903 52.59334946 -0.24586678 C54.36728647 -0.25002733 56.14122641 -0.26229041 57.91504288 -0.28338432 C73.02544261 -0.4487382 86.39766696 1.53717083 98.59716797 11.30639648 C99.28166016 11.82975586 99.96615234 12.35311523 100.67138672 12.89233398 C111.02177904 21.29093804 117.67387306 33.14397037 119.59716797 46.30639648 C119.91458124 52.17177862 119.92790869 58.03125005 119.93310547 63.90405273 C119.93954713 65.62406012 119.94627646 67.34406645 119.95327759 69.06407166 C119.96521183 72.66236912 119.96896265 76.26057088 119.96777344 79.85888672 C119.96757105 84.42539683 119.99480739 88.99127904 120.02931786 93.55764103 C120.05177955 97.11059777 120.05560507 100.66340835 120.05455399 104.21642876 C120.05688363 105.89741606 120.06555454 107.57840909 120.08121872 109.25932503 C120.22874794 126.73280708 117.71917577 144.15762805 105.42919922 157.61499023 C91.68261832 170.30639648 91.68261832 170.30639648 84.59716797 170.30639648 C84.06526256 168.87295648 83.54701539 167.43444282 83.03466797 165.99389648 C82.59960938 164.79313477 82.59960938 164.79313477 82.15576172 163.56811523 C81.59716797 161.30639648 81.59716797 161.30639648 82.59716797 158.30639648 C84.60107422 157.01733398 84.60107422 157.01733398 87.15966797 155.68139648 C96.45550748 150.2765298 102.24998282 142.50597353 105.59716797 132.30639648 C106.45046393 127.33294363 106.75472442 122.46950908 106.77416992 117.43432617 C106.78402672 116.30349861 106.78402672 116.30349861 106.79408264 115.14982605 C106.81365558 112.67597322 106.82544162 110.20218059 106.83544922 107.72827148 C106.83952475 106.87684822 106.84360027 106.02542496 106.8477993 105.14820099 C106.86859096 100.64217885 106.88292287 96.13618654 106.89233398 91.63012695 C106.90338988 87.00257377 106.93780019 82.37550249 106.97750568 77.74811935 C107.00377732 74.16535613 107.01203507 70.58270609 107.01561546 66.99985504 C107.0204534 65.29518628 107.03198658 63.5905216 107.05065346 61.88594818 C107.19676417 47.66113397 105.23619091 36.45396569 95.59716797 25.30639648 C93.08807987 23.00969182 90.47056634 21.11937403 87.59716797 19.30639648 C87.00935547 18.91709961 86.42154297 18.52780273 85.81591797 18.12670898 C79.09373411 13.94062176 72.18877265 13.00598089 64.42797852 13.01586914 C63.65444031 13.00915192 62.8809021 13.00243469 62.08392334 12.99551392 C59.55051076 12.97666237 57.01736489 12.9726163 54.48388672 12.97045898 C52.70563146 12.96402222 50.92737725 12.95729322 49.14912415 12.95028687 C45.42971341 12.93834624 41.71039533 12.93460273 37.9909668 12.93579102 C33.25019082 12.93599404 28.5100154 12.90869475 23.76938152 12.8742466 C20.09824451 12.8518918 16.42725009 12.84795609 12.75605202 12.84901047 C11.00952905 12.8466673 9.26300137 12.83791709 7.51654625 12.82234573 C-6.83421034 12.70636686 -18.15508208 14.57498143 -29.40283203 24.30639648 C-37.53391856 32.82690286 -41.5555561 42.17844013 -41.5480957 53.86962891 C-41.55145432 54.62628845 -41.55481293 55.382948 -41.55827332 56.16253662 C-41.56776578 58.66232958 -41.56972587 61.16205538 -41.57080078 63.66186523 C-41.57401561 65.40578743 -41.57737985 67.14970935 -41.58088684 68.89363098 C-41.5868746 72.55116399 -41.58872721 76.20867338 -41.58813477 79.86621094 C-41.58803341 84.53537029 -41.60165989 89.20437668 -41.61890697 93.87349987 C-41.63007119 97.47763249 -41.63205258 101.08172871 -41.63152504 104.68587685 C-41.63269948 106.40612628 -41.63709097 108.12637682 -41.64485741 109.84660912 C-41.70789454 125.25733375 -40.41860398 138.54241306 -29.51611328 150.41186523 C-25.54707146 153.97006354 -21.0028109 156.64456423 -16.40283203 159.30639648 C-17.06283203 162.60639648 -17.72283203 165.90639648 -18.40283203 169.30639648 C-21.40283203 170.30639648 -21.40283203 170.30639648 -23.85595703 169.30249023 C-37.99439329 161.42366891 -47.45818963 151.07942243 -52.40283203 135.30639648 C-54.96495253 126.16487495 -54.71249338 116.87519236 -54.70361328 107.47045898 C-54.70750899 105.74229837 -54.71184543 104.0141387 -54.71659851 102.28598022 C-54.72402652 98.67686855 -54.72379442 95.06785476 -54.71850586 91.45874023 C-54.71271602 86.86394143 -54.72964721 82.26954637 -54.75285053 77.67481422 C-54.76767646 74.10915842 -54.7684476 70.54359789 -54.76534081 66.97791672 C-54.76584958 65.28526383 -54.77100267 63.59260498 -54.78115273 61.89998245 C-54.87741508 43.60534176 -51.50680628 29.12689607 -38.56689453 15.33764648 C-27.63600642 5.0776071 -14.89711569 0.01374878 0 0 Z " fill="#6E6E72" transform="translate(98.40283203125,235.693603515625)"/>
<path d="M0 0 C1.18014931 -0.01248528 1.18014931 -0.01248528 2.38414001 -0.02522278 C4.95780549 -0.04910605 7.53121629 -0.05806941 10.10498047 -0.06469727 C11.91706407 -0.07368218 13.72914699 -0.08280431 15.54122925 -0.09205627 C19.33202913 -0.10849163 23.12274129 -0.11623602 26.91357422 -0.11914062 C31.73138948 -0.1245094 36.5483604 -0.16215073 41.36593819 -0.20788479 C45.10843792 -0.23787835 48.85074009 -0.24486903 52.59334946 -0.24586678 C54.36728647 -0.25002733 56.14122641 -0.26229041 57.91504288 -0.28338432 C73.02544261 -0.4487382 86.39766696 1.53717083 98.59716797 11.30639648 C99.28166016 11.82975586 99.96615234 12.35311523 100.67138672 12.89233398 C111.02177904 21.29093804 117.67387306 33.14397037 119.59716797 46.30639648 C119.91458124 52.17177862 119.92790869 58.03125005 119.93310547 63.90405273 C119.93954713 65.62406012 119.94627646 67.34406645 119.95327759 69.06407166 C119.96521183 72.66236912 119.96896265 76.26057088 119.96777344 79.85888672 C119.96757105 84.42539683 119.99480739 88.99127904 120.02931786 93.55764103 C120.05177955 97.11059777 120.05560507 100.66340835 120.05455399 104.21642876 C120.05688363 105.89741606 120.06555454 107.57840909 120.08121872 109.25932503 C120.22874794 126.73280708 117.71917577 144.15762805 105.42919922 157.61499023 C91.68261832 170.30639648 91.68261832 170.30639648 84.59716797 170.30639648 C84.06526256 168.87295648 83.54701539 167.43444282 83.03466797 165.99389648 C82.59960938 164.79313477 82.59960938 164.79313477 82.15576172 163.56811523 C81.59716797 161.30639648 81.59716797 161.30639648 82.59716797 158.30639648 C84.60107422 157.01733398 84.60107422 157.01733398 87.15966797 155.68139648 C96.45550748 150.2765298 102.24998282 142.50597353 105.59716797 132.30639648 C106.45046393 127.33294363 106.75472442 122.46950908 106.77416992 117.43432617 C106.78402672 116.30349861 106.78402672 116.30349861 106.79408264 115.14982605 C106.81365558 112.67597322 106.82544162 110.20218059 106.83544922 107.72827148 C106.83952475 106.87684822 106.84360027 106.02542496 106.8477993 105.14820099 C106.86859096 100.64217885 106.88292287 96.13618654 106.89233398 91.63012695 C106.90338988 87.00257377 106.93780019 82.37550249 106.97750568 77.74811935 C107.00377732 74.16535613 107.01203507 70.58270609 107.01561546 66.99985504 C107.0204534 65.29518628 107.03198658 63.5905216 107.05065346 61.88594818 C107.19676417 47.66113397 105.23619091 36.45396569 95.59716797 25.30639648 C93.08807987 23.00969182 90.47056634 21.11937403 87.59716797 19.30639648 C87.00935547 18.91709961 86.42154297 18.52780273 85.81591797 18.12670898 C79.09373411 13.94062176 72.18877265 13.00598089 64.42797852 13.01586914 C63.65444031 13.00915192 62.8809021 13.00243469 62.08392334 12.99551392 C59.55051076 12.97666237 57.01736489 12.9726163 54.48388672 12.97045898 C52.70563146 12.96402222 50.92737725 12.95729322 49.14912415 12.95028687 C45.42971341 12.93834624 41.71039533 12.93460273 37.9909668 12.93579102 C33.25019082 12.93599404 28.5100154 12.90869475 23.76938152 12.8742466 C20.09824451 12.8518918 16.42725009 12.84795609 12.75605202 12.84901047 C11.00952905 12.8466673 9.26300137 12.83791709 7.51654625 12.82234573 C-6.83421034 12.70636686 -18.15508208 14.57498143 -29.40283203 24.30639648 C-37.53391856 32.82690286 -41.5555561 42.17844013 -41.5480957 53.86962891 C-41.55145432 54.62628845 -41.55481293 55.382948 -41.55827332 56.16253662 C-41.56776578 58.66232958 -41.56972587 61.16205538 -41.57080078 63.66186523 C-41.57401561 65.40578743 -41.57737985 67.14970935 -41.58088684 68.89363098 C-41.5868746 72.55116399 -41.58872721 76.20867338 -41.58813477 79.86621094 C-41.58803341 84.53537029 -41.60165989 89.20437668 -41.61890697 93.87349987 C-41.63007119 97.47763249 -41.63205258 101.08172871 -41.63152504 104.68587685 C-41.63269948 106.40612628 -41.63709097 108.12637682 -41.64485741 109.84660912 C-41.70789454 125.25733375 -40.41860398 138.54241306 -29.51611328 150.41186523 C-25.54707146 153.97006354 -21.0028109 156.64456423 -16.40283203 159.30639648 C-17.06283203 162.60639648 -17.72283203 165.90639648 -18.40283203 169.30639648 C-21.40283203 170.30639648 -21.40283203 170.30639648 -23.85595703 169.30249023 C-37.99439329 161.42366891 -47.45818963 151.07942243 -52.40283203 135.30639648 C-54.96495253 126.16487495 -54.71249338 116.87519236 -54.70361328 107.47045898 C-54.70750899 105.74229837 -54.71184543 104.0141387 -54.71659851 102.28598022 C-54.72402652 98.67686855 -54.72379442 95.06785476 -54.71850586 91.45874023 C-54.71271602 86.86394143 -54.72964721 82.26954637 -54.75285053 77.67481422 C-54.76767646 74.10915842 -54.7684476 70.54359789 -54.76534081 66.97791672 C-54.76584958 65.28526383 -54.77100267 63.59260498 -54.78115273 61.89998245 C-54.87741508 43.60534176 -51.50680628 29.12689607 -38.56689453 15.33764648 C-27.63600642 5.0776071 -14.89711569 0.01374878 0 0 Z " fill="#6E6E72" transform="translate(494.40283203125,235.693603515625)"/>
<path d="M0 0 C1.79445498 -0.00643918 3.58890895 -0.01316835 5.38336182 -0.02017212 C9.13548208 -0.0321061 12.88751055 -0.03585699 16.63964844 -0.03466797 C21.41494822 -0.03446509 26.18965082 -0.06175233 30.96480942 -0.09621239 C34.66948069 -0.11860221 38.37401102 -0.12250182 42.07874298 -0.12144852 C43.83756821 -0.12378691 45.59639838 -0.13250935 47.35515594 -0.14811325 C65.34008403 -0.29273715 81.06434573 3.44855536 94.57421875 16.13671875 C107.82543062 30.23961531 109.96013083 45.36440347 109.9765625 63.93359375 C109.98300416 65.65360114 109.9897335 67.37360747 109.99673462 69.09361267 C110.00866886 72.69191013 110.01241968 76.2901119 110.01123047 79.88842773 C110.01102808 84.45493785 110.03826442 89.02082005 110.07277489 93.58718204 C110.09523658 97.14013879 110.0990621 100.69294936 110.09801102 104.24596977 C110.10034066 105.92695708 110.10901157 107.60795011 110.12467575 109.28886604 C110.27220497 126.7623481 107.7626328 144.18716906 95.47265625 157.64453125 C81.72607535 170.3359375 81.72607535 170.3359375 74.640625 170.3359375 C74.10871959 168.9024975 73.59047242 167.46398383 73.078125 166.0234375 C72.64306641 164.82267578 72.64306641 164.82267578 72.19921875 163.59765625 C71.640625 161.3359375 71.640625 161.3359375 72.640625 158.3359375 C74.64453125 157.046875 74.64453125 157.046875 77.203125 155.7109375 C86.49896451 150.30607081 92.29343986 142.53551455 95.640625 132.3359375 C96.49392096 127.36248465 96.79818145 122.4990501 96.81762695 117.46386719 C96.82748375 116.33303963 96.82748375 116.33303963 96.83753967 115.17936707 C96.85711261 112.70551424 96.86889865 110.23172161 96.87890625 107.7578125 C96.88298178 106.90638924 96.8870573 106.05496597 96.89125633 105.177742 C96.91204799 100.67171986 96.9263799 96.16572756 96.93579102 91.65966797 C96.94684691 87.03211479 96.98125722 82.4050435 97.02096272 77.77766037 C97.04723435 74.19489715 97.0554921 70.61224711 97.05907249 67.02939606 C97.06391043 65.32472729 97.07544361 63.62006262 97.09411049 61.9154892 C97.2402212 47.69067499 95.27964794 36.48350671 85.640625 25.3359375 C83.1315369 23.03923284 80.51402337 21.14891504 77.640625 19.3359375 C77.0528125 18.94664062 76.465 18.55734375 75.859375 18.15625 C69.13719114 13.97016278 62.23222968 13.0355219 54.47143555 13.04541016 C53.69789734 13.03869293 52.92435913 13.03197571 52.12738037 13.02505493 C49.59396779 13.00620338 47.06082192 13.00215732 44.52734375 13 C42.7490885 12.99356323 40.97083428 12.98683423 39.19258118 12.97982788 C35.47317044 12.96788726 31.75385236 12.96414374 28.03442383 12.96533203 C23.29364785 12.96553505 18.55347243 12.93823576 13.81283855 12.90378761 C10.14170154 12.88143281 6.47070712 12.8774971 2.79950905 12.87855148 C1.05298608 12.87620832 -0.6935416 12.8674581 -2.43999672 12.85188675 C-16.79075331 12.73590787 -28.11162505 14.60452244 -39.359375 24.3359375 C-47.53281001 32.90082055 -51.51201904 42.26320212 -51.50463867 54.00683594 C-51.50799728 54.77485535 -51.5113559 55.54287476 -51.51481628 56.33416748 C-51.52430845 58.87123232 -51.52626872 61.40823101 -51.52734375 63.9453125 C-51.53055824 65.71405057 -51.53392246 67.48278837 -51.53742981 69.25152588 C-51.54341724 72.96033341 -51.54527018 76.66911766 -51.54467773 80.37792969 C-51.5445763 85.11668876 -51.5582112 89.85529737 -51.57544994 94.59402084 C-51.58660305 98.24872515 -51.5885959 101.90339352 -51.58806801 105.5581131 C-51.5892438 107.30430875 -51.59364295 109.05050545 -51.60140038 110.79668427 C-51.61126439 113.24704821 -51.60829683 115.69709115 -51.60229492 118.14746094 C-51.61072418 119.21697998 -51.61072418 119.21697998 -51.61932373 120.30810547 C-51.54882314 131.70973451 -47.16288271 142.0691198 -39.47265625 150.44140625 C-35.50361443 153.99960455 -30.95935387 156.67410524 -26.359375 159.3359375 C-27.019375 162.6359375 -27.679375 165.9359375 -28.359375 169.3359375 C-31.359375 170.3359375 -31.359375 170.3359375 -33.8125 169.33203125 C-47.95093626 161.45320993 -57.4147326 151.10896344 -62.359375 135.3359375 C-64.9214955 126.19441597 -64.66903635 116.90473337 -64.66015625 107.5 C-64.66405196 105.77183938 -64.6683884 104.04367971 -64.67314148 102.31552124 C-64.68056949 98.70640957 -64.68033739 95.09739578 -64.67504883 91.48828125 C-64.66925899 86.89348245 -64.68619017 82.29908739 -64.7093935 77.70435524 C-64.72421943 74.13869944 -64.72499057 70.5731389 -64.72188377 67.00745773 C-64.72239255 65.31480485 -64.72754564 63.622146 -64.73769569 61.92952347 C-64.8342482 43.57973995 -61.42930158 29.12149389 -48.453125 15.296875 C-34.32797349 2.0677219 -18.49040314 0.01564706 0 0 Z " fill="#6E6E72" transform="translate(306.359375,235.6640625)"/>
<path d="M0 0 C8.848125 -0.309375 8.848125 -0.309375 17.875 -0.625 C19.71562012 -0.71604004 21.55624023 -0.80708008 23.45263672 -0.90087891 C31.09727055 -1.12797449 37.08453877 -1.09967773 43.12109375 4.16015625 C48.17479731 10.37433989 48.46446066 16.29520024 48.1875 24.0625 C48.21779297 25.27744141 48.24808594 26.49238281 48.27929688 27.74414062 C48.19282213 34.12597713 47.43713931 38.43854273 43.1796875 43.3359375 C37.72712763 48.01551459 32.86221277 48.07366176 25.9375 47.5625 C24.35291992 47.5015918 24.35291992 47.5015918 22.73632812 47.43945312 C20.15553416 47.33435292 17.57713651 47.17294785 15 47 C15 51.29 15 55.58 15 60 C10.05 60 5.1 60 0 60 C0 40.2 0 20.4 0 0 Z " fill="#7C7C80" transform="translate(306,293)"/>
<path d="M0 0 C13.86 0 27.72 0 42 0 C42 4.29 42 8.58 42 13 C33.09 13 24.18 13 15 13 C15 16.63 15 20.26 15 24 C22.59 24 30.18 24 38 24 C38 27.96 38 31.92 38 36 C30.41 36 22.82 36 15 36 C15 39.96 15 43.92 15 48 C24.24 48 33.48 48 43 48 C43 51.96 43 55.92 43 60 C28.81 60 14.62 60 0 60 C0 40.2 0 20.4 0 0 Z " fill="#7B7B7F" transform="translate(506,293)"/>
<path d="M0 0 C5.28 0 10.56 0 16 0 C16.79388678 2.97859046 17.58515639 5.95783716 18.375 8.9375 C18.59671875 9.76830078 18.8184375 10.59910156 19.046875 11.45507812 C20.49956648 16.94539739 21.80121016 22.44859471 23 28 C24.98 28 26.96 28 29 28 C29.26478149 26.83428467 29.26478149 26.83428467 29.53491211 25.64501953 C30.33311968 22.1377359 31.13525881 18.63136309 31.9375 15.125 C32.21529297 13.90167969 32.49308594 12.67835938 32.77929688 11.41796875 C33.18051758 9.66806641 33.18051758 9.66806641 33.58984375 7.8828125 C33.83597412 6.80402832 34.08210449 5.72524414 34.33569336 4.61376953 C35 2 35 2 36 0 C41.28 0 46.56 0 52 0 C50.64697413 7.40105151 48.76115649 14.4536334 46.5 21.625 C44.48962841 28.05145982 42.55649198 34.44716878 41 41 C38.36 41 35.72 41 33 41 C33 46.94 33 52.88 33 59 C28.38 59 23.76 59 19 59 C19 53.06 19 47.12 19 41 C16.36 41 13.72 41 11 41 C6.69343271 27.4230564 2.88278725 13.95269031 0 0 Z " fill="#7D7D82" transform="translate(105,294)"/>
<path d="M0 0 C14.85 0 29.7 0 45 0 C45 3.96 45 7.92 45 12 C40.05 12 35.1 12 30 12 C30 27.51 30 43.02 30 59 C25.38 59 20.76 59 16 59 C16 43.82 16 28.64 16 13 C10.72 13 5.44 13 0 13 C0 8.71 0 4.42 0 0 Z " fill="#7E7E82" transform="translate(306,96)"/>
<path d="M0 0 C1.13498932 -0.00503792 1.13498932 -0.00503792 2.29290771 -0.01017761 C4.79270067 -0.01967008 7.29242647 -0.02163017 9.79223633 -0.02270508 C11.53615852 -0.02591991 13.28008045 -0.02928415 15.02400208 -0.03279114 C18.68153508 -0.0387789 22.33904447 -0.04063151 25.99658203 -0.04003906 C30.66574139 -0.0399377 35.33474777 -0.05356419 40.00387096 -0.07081127 C43.60800358 -0.08197549 47.21209981 -0.08395688 50.81624794 -0.08342934 C52.53649737 -0.08460378 54.25674791 -0.08899527 55.97698021 -0.0967617 C72.08276347 -0.16264195 85.13894008 1.4429355 97.39379883 12.89526367 C102.20447174 18.19344264 107.43676758 25.77684661 107.43676758 33.14526367 C106.77676758 33.14526367 106.11676758 33.14526367 105.43676758 33.14526367 C104.10473633 31.16870117 104.10473633 31.16870117 102.62426758 28.52026367 C96.18026598 17.55929444 88.22776417 11.05452772 75.86105347 7.78529358 C68.89638378 6.48353402 61.81801641 6.69491664 54.75708008 6.71166992 C53.05516352 6.70709725 51.35324879 6.70178848 49.65133667 6.69578552 C46.09943093 6.68689713 42.54775054 6.68922805 38.99584961 6.69921875 C34.47838883 6.71069676 29.96171115 6.69049314 25.4443531 6.66130161 C21.93353459 6.64281975 18.42289956 6.64325584 14.91204453 6.64893913 C13.24812599 6.64909092 11.58419386 6.64316663 9.92032242 6.63064766 C-5.09865531 6.53354523 -18.11140505 8.49964495 -29.56323242 19.14526367 C-34.49004304 24.84274858 -37.84377122 31.15236344 -40.56323242 38.14526367 C-42.4862243 32.75334528 -39.78911968 28.10139331 -37.56323242 23.14526367 C-31.534699 11.88844462 -21.98250952 4.60368887 -9.86503601 0.58158875 C-6.58282629 -0.04058006 -3.32783987 -0.00212357 0 0 Z " fill="#252525" transform="translate(295.563232421875,49.854736328125)"/>
<path d="M0 0 C4.1765625 -0.0309375 4.1765625 -0.0309375 8.4375 -0.0625 C9.75512329 -0.07615601 9.75512329 -0.07615601 11.09936523 -0.09008789 C13.06645974 -0.09723091 15.03353621 -0.05031893 17 0 C18.65394117 1.65394117 18.12999683 3.60315413 18.1328125 5.875 C18.13474609 7.35226562 18.13474609 7.35226562 18.13671875 8.859375 C18.13285156 9.89578125 18.12898438 10.9321875 18.125 12 C18.13080078 13.55460937 18.13080078 13.55460937 18.13671875 15.140625 C18.13542969 16.12546875 18.13414062 17.1103125 18.1328125 18.125 C18.13168457 19.03507812 18.13055664 19.94515625 18.12939453 20.8828125 C18 23 18 23 17 24 C14.13530675 24.07330331 11.30106326 24.09217831 8.4375 24.0625 C4.2609375 24.0315625 4.2609375 24.0315625 0 24 C0 16.08 0 8.16 0 0 Z " fill="#1D1D1D" transform="translate(321,305)"/>
<path d="M0 0 C13.86 0 27.72 0 42 0 C42 0.99 42 1.98 42 3 C28.14 3 14.28 3 0 3 C0 2.01 0 1.02 0 0 Z " fill="#87878B" transform="translate(507,350)"/>
<path d="M0 0 C4.62 0 9.24 0 14 0 C14 0.99 14 1.98 14 3 C9.38 3 4.76 3 0 3 C0 2.01 0 1.02 0 0 Z " fill="#87878B" transform="translate(307,350)"/>
<path d="M0 0 C4.62 0 9.24 0 14 0 C14 0.99 14 1.98 14 3 C9.38 3 4.76 3 0 3 C0 2.01 0 1.02 0 0 Z " fill="#87878B" transform="translate(124,350)"/>
<path d="M0 0 C4.62 0 9.24 0 14 0 C14 0.99 14 1.98 14 3 C9.38 3 4.76 3 0 3 C0 2.01 0 1.02 0 0 Z " fill="#87878B" transform="translate(322,152)"/>
</svg>
